<svg xmlns="http://www.w3.org/2000/svg" xmlns:xlink="http://www.w3.org/1999/xlink" width="22" height="32" viewBox="0 0 22 32"><defs><path id="vsiga" d="M401 939c0 4-3.684 8.319-5.031 12.078C393.965 956.666 394.25 960 390 960c-4.187 0-3.966-3.349-5.969-8.945C382.69 947.303 379 943.03 379 939c0-6.075 4.925-11 11-11s11 4.925 11 11zm-8.048 14.982c.081-.278.176-.588.264-.884l-6.189.773a43.927 43.927 0 0 0 .607 1.925l4.959-.62c.11-.355.228-.745.36-1.194zm.583-1.923c.107-.34.23-.7.352-1.059h-7.766c.229.672.434 1.307.615 1.908zm-1.294 4.16l-4.238.531c.518 1.134.984 1.25 1.997 1.25 1.18 0 1.628-.127 2.241-1.78zm4.104-10.424C397.65 943.446 399 941.018 399 939c0-4.963-4.037-9-9-9s-9 4.037-9 9c0 2.033 1.349 4.448 2.653 6.783.59 1.057 1.188 2.138 1.686 3.217h9.333c.495-1.074 1.088-2.151 1.673-3.205zM390.5 933.5a.5.5 0 0 1-.5.5c-2.757 0-5 2.243-5 5a.5.5 0 1 1-1 0c0-3.309 2.691-6 6-6a.5.5 0 0 1 .5.5z"/></defs><g><g transform="translate(-379 -928)"><use fill="#666d89" xlink:href="#vsiga"/></g></g></svg>