<svg xmlns="http://www.w3.org/2000/svg" xmlns:xlink="http://www.w3.org/1999/xlink" width="32" height="28" viewBox="0 0 32 28"><defs><path id="wy41a" d="M723.192 947.192l-11.053 10.93a3.047 3.047 0 0 1-4.278 0l-11.053-10.93a9.401 9.401 0 0 1 0-13.4c3.631-3.591 9.432-3.666 13.192-.287 3.76-3.38 9.562-3.304 13.192.287a9.401 9.401 0 0 1 0 13.4zm-1.427-11.99c-2.842-2.812-7.416-2.91-10.409-.222L710 936.2l-1.356-1.219c-2.993-2.689-7.565-2.59-10.409.222a7.429 7.429 0 0 0 0 10.579l11.053 10.93c.391.39 1.032.39 1.425 0l11.052-10.93a7.429 7.429 0 0 0 0-10.58zm-18.013 1.324a.5.5 0 0 1-.5.5h-.001a3.248 3.248 0 0 0-3.25 3.244v.001a.5.5 0 0 1-1 0 4.247 4.247 0 0 1 4.247-4.244h.004a.5.5 0 0 1 .5.499z"/></defs><g><g transform="translate(-694 -931)"><use fill="#666d89" xlink:href="#wy41a"/></g></g></svg>