<svg xmlns="http://www.w3.org/2000/svg" xmlns:xlink="http://www.w3.org/1999/xlink" width="32" height="28" viewBox="0 0 32 28"><defs><path id="yrl0a" d="M390.5 1059.5a.5.5 0 0 1-.5.5c-5.327 0-10 2.804-10 6a.5.5 0 1 1-1 0c0-3.794 5.037-7 11-7a.5.5 0 0 1 .5.5zm15.5 6.5c0 6.627-7.164 12-16 12a21.27 21.27 0 0 1-3.086-.228c-.684.833-3.628 3.704-6.753 4.216.004-.013-.161.012-.255.012a.906.906 0 0 1-.832-1.264h-.002c.59-1.013 1.928-2.943 1.928-4.736 0-.03.008-.047.008-.074-4.229-2.16-7.008-5.799-7.008-9.926 0-6.627 7.163-12 16-12 8.836 0 16 5.373 16 12zm-2 0c0-5.514-6.28-10-14-10s-14 4.486-14 10c0 3.207 2.212 6.252 5.918 8.145a2 2 0 0 1 1.081 1.965c-.02 1.034-.326 2.038-.716 2.932 1.44-.856 2.657-2.018 3.085-2.54a2 2 0 0 1 1.836-.709c.939.138 1.879.207 2.796.207 7.72 0 14-4.486 14-10z"/></defs><g><g transform="translate(-374 -1054)"><use fill="#666d89" xlink:href="#yrl0a"/></g></g></svg>