<svg xmlns="http://www.w3.org/2000/svg" xmlns:xlink="http://www.w3.org/1999/xlink" width="22" height="32" viewBox="0 0 22 32"><defs><path id="geria" d="M82 1055v26a3 3 0 0 1-3 3H63a3 3 0 0 1-3-3v-26a3 3 0 0 1 3-3h16a3 3 0 0 1 3 3zm-2 23.996H62v2.005a1 1 0 0 0 1 1l16-.002a1 1 0 0 0 1-1zM80 1058H62v19.997l18-.001zm0-3a1 1 0 0 0-1-1H63a1 1 0 0 0-1 1v2h18zm-7.5 1h-3a.5.5 0 1 1 0-1h3a.5.5 0 1 1 0 1zm-1 24.996h-1a.5.5 0 1 1 0-1h1a.5.5 0 1 1 0 1z"/></defs><g><g transform="translate(-60 -1052)"><use fill="#666d89" xlink:href="#geria"/></g></g></svg>